# xmcd
#
# Track frame offsets: 
#        150
#        27016
#        49798
#        57307
#        68044
#        85028
#        99437
#        122239
#        143502
#        150346
#        162702
#        172212
#        178754
#        203584
#        227113
#        235953
#        253209
#        265080
#        273990
#        290749
#
# Disc length: 4041 seconds
#
# Revision: 26
# Processed by: cddbd v1.5.2PL0 Copyright (c) Steve Scherf et al.
# Submitted via: ExactAudioCopyFreeDBPlugin 1.0
#
DISCID=1e0fc714
DTITLE=Jaap ter Linden, Mozart Akademie Amsterdam - MCW01-01 Symphonie
DTITLE=s - KV 16-19-19A-22-43-45
DYEAR=2001
DGENRE=Classical
TTITLE0=Symphony No 1. E flat major KV 16 - I Molto Allegro
TTITLE1=Symphony No 1. E flat major KV 16 - II Andante
TTITLE2=Symphony No 1. E flat major KV 16 - III Presto
TTITLE3=Symphony No 4. D major KV 19 - I Allegro
TTITLE4=Symphony No 4. D major KV 19 - II Andante
TTITLE5=Symphony No 4. D major KV 19 - III Presto
TTITLE6=Symphony F major KV 19a - I Allegro assai
TTITLE7=Symphony F major KV 19a - II Andante
TTITLE8=Symphony F major KV 19a - III Presto
TTITLE9=Symphony No. 5 B flat major KV 22 - I Allegro
TTITLE10=Symphony No. 5 B flat major KV 22 - II Andante
TTITLE11=Symphony No. 5 B flat major KV 22 - III Molto allegro
TTITLE12=Symphony No. 6 F major KV 43 - I Allegro
TTITLE13=Symphony No. 6 F major KV 43 - II Andante
TTITLE14=Symphony No. 6 F major KV 43 - III Minuetto and trio
TTITLE15=Symphony No. 6 F major KV 43 - IV Allegro
TTITLE16=Symphony No. 45 D major KV 45 - I Allegro
TTITLE17=Symphony No. 45 D major KV 45 - II Andante
TTITLE18=Symphony No. 45 D major KV 45 - III Minuetto and trio
TTITLE19=Symphony No. 45 D major KV 45 - IV Molto allegro
EXTD=
EXTT0=
EXTT1=
EXTT2=
EXTT3=
EXTT4=
EXTT5=
EXTT6=
EXTT7=
EXTT8=
EXTT9=
EXTT10=
EXTT11=
EXTT12=
EXTT13=
EXTT14=
EXTT15=
EXTT16=
EXTT17=
EXTT18=
EXTT19=
PLAYORDER=
